<?xml version="1.0" ?><!DOCTYPE svg  PUBLIC '-//W3C//DTD SVG 1.1//EN'  'http://www.w3.org/Graphics/SVG/1.1/DTD/svg11.dtd'><svg enable-background="new 0 0 48 48" height="48px" version="1.1" viewBox="0 0 48 48" width="48px" xml:space="preserve" xmlns="http://www.w3.org/2000/svg" xmlns:xlink="http://www.w3.org/1999/xlink"><g id="Expanded"><g><g><path d="M42.468,48.001c-0.298,0-0.593-0.133-0.79-0.386l-5.446-7.002l-0.21-0.614v-9.116c0-2.43-1.28-3.49-4.085-5.813     c-0.485-0.402-1.007-0.834-1.564-1.31c-0.42-0.358-0.47-0.99-0.112-1.41c0.358-0.42,0.99-0.471,1.41-0.112     c0.549,0.468,1.063,0.895,1.542,1.291c2.896,2.398,4.809,3.983,4.809,7.354v8.773l5.236,6.731     c0.339,0.436,0.26,1.064-0.176,1.403C42.899,47.932,42.683,48.001,42.468,48.001z"/></g><g><path d="M31.165,47.999c-0.312,0-0.619-0.146-0.814-0.418l-1.025-1.435c-0.854-1.195-1.304-2.603-1.304-4.07v-2.764l-4.276-6.176     c-1.147-1.221-1.125-3.149,0.068-4.343c1.218-1.218,3.198-1.217,4.415,0l5.5,5.5c0.391,0.391,0.391,1.023,0,1.414     s-1.023,0.391-1.414,0l-5.5-5.5c-0.438-0.437-1.148-0.437-1.586,0c-0.437,0.437-0.437,1.148,0,1.585l0.115,0.138l4.5,6.5     l0.178,0.569v3.077c0,1.049,0.322,2.054,0.932,2.908l1.025,1.434c0.321,0.449,0.217,1.074-0.232,1.395     C31.569,47.938,31.366,47.999,31.165,47.999z"/></g><g><path d="M29.021,43.999h-15c-2.206,0-4-1.794-4-4v-22c0-2.206,1.794-4,4-4h14c2.206,0,4,1.794,4,4v15h-2v-15c0-1.103-0.897-2-2-2     h-14c-1.103,0-2,0.897-2,2v22c0,1.103,0.897,2,2,2h15V43.999z"/></g><g><path d="M26.678,12.342c-1.511-1.511-3.52-2.343-5.657-2.343s-4.146,0.832-5.657,2.343l-1.414-1.414     c1.889-1.889,4.4-2.929,7.071-2.929s5.182,1.04,7.071,2.929L26.678,12.342z"/></g><g><path d="M29.506,9.514c-4.679-4.679-12.292-4.679-16.971,0L11.122,8.1c5.458-5.459,14.341-5.459,19.799,0L29.506,9.514z"/></g><g><path d="M32.335,6.685c-6.238-6.238-16.39-6.238-22.628,0L8.293,5.271c7.019-7.019,18.438-7.019,25.456,0L32.335,6.685z"/></g><g><path d="M17.021,19.999c-0.552,0-1,0.448-1,1s0.448,1,1,1c0.552,0,1-0.448,1-1S17.573,19.999,17.021,19.999L17.021,19.999z"/></g><g><path d="M21.021,19.999c-0.552,0-1,0.448-1,1s0.448,1,1,1c0.552,0,1-0.448,1-1S21.573,19.999,21.021,19.999L21.021,19.999z"/></g><g><path d="M25.021,19.999c-0.552,0-1,0.448-1,1s0.448,1,1,1c0.552,0,1-0.448,1-1S25.573,19.999,25.021,19.999L25.021,19.999z"/></g><g><path d="M17.021,23.999c-0.552,0-1,0.448-1,1s0.448,1,1,1c0.552,0,1-0.448,1-1S17.573,23.999,17.021,23.999L17.021,23.999z"/></g><g><path d="M21.021,23.999c-0.552,0-1,0.448-1,1s0.448,1,1,1c0.552,0,1-0.448,1-1S21.573,23.999,21.021,23.999L21.021,23.999z"/></g><g><path d="M17.021,27.999c-0.552,0-1,0.448-1,1s0.448,1,1,1c0.552,0,1-0.448,1-1S17.573,27.999,17.021,27.999L17.021,27.999z"/></g><g><path d="M21.021,27.999c-0.552,0-1,0.448-1,1s0.448,1,1,1c0.552,0,1-0.448,1-1S21.573,27.999,21.021,27.999L21.021,27.999z"/></g><g><path d="M17.021,31.999c-0.552,0-1,0.448-1,1s0.448,1,1,1c0.552,0,1-0.448,1-1S17.573,31.999,17.021,31.999L17.021,31.999z"/></g><g><path d="M21.021,31.999c-0.552,0-1,0.448-1,1s0.448,1,1,1c0.552,0,1-0.448,1-1S21.573,31.999,21.021,31.999L21.021,31.999z"/></g><g><path d="M17.021,35.999c-0.552,0-1,0.448-1,1s0.448,1,1,1c0.552,0,1-0.448,1-1S17.573,35.999,17.021,35.999L17.021,35.999z"/></g><g><path d="M21.021,35.999c-0.552,0-1,0.448-1,1s0.448,1,1,1c0.552,0,1-0.448,1-1S21.573,35.999,21.021,35.999L21.021,35.999z"/></g><g><path d="M25.021,23.999c-0.552,0-1,0.448-1,1s0.448,1,1,1c0.552,0,1-0.448,1-1S25.573,23.999,25.021,23.999L25.021,23.999z"/></g></g></g></svg>